<svg width="32" height="32" viewBox="0 0 32 32" xmlns="http://www.w3.org/2000/svg">
  <g clip-path="url(#clip0)">
    <!-- Optimise text scaled down -->
    <path d="M11.2 5.1C11.2 6.0 10.5 6.6 9.9 6.6C9.5 6.6 9.2 6.4 9.0 6.2V7.5H8.1V3.7H9.0V4.0C9.2 3.8 9.5 3.7 9.9 3.7C10.5 3.7 11.2 4.2 11.2 5.1ZM10.3 5.1C10.3 4.7 10.0 4.4 9.6 4.4C9.3 4.4 9.0 4.7 9.0 5.1C9.0 5.5 9.3 5.8 9.6 5.8C10.0 5.8 10.3 5.5 10.3 5.1Z" fill="#221F1F"/>
    <path d="M13.3 6.4C13.1 6.5 12.8 6.6 12.5 6.6C12.0 6.6 11.6 6.2 11.6 5.6V3.0H12.4V3.8H13.2V4.4H12.4V5.5C12.4 5.7 12.5 5.8 12.8 5.8C12.9 5.8 13.0 5.8 13.1 5.7L13.3 6.4Z" fill="#221F1F"/>
    <path d="M14.7 3.7V6.5H14.0V3.7H14.7Z" fill="#221F1F"/>
    <path d="M20.2 4.7V6.5H19.2V5.0C19.2 4.7 19.0 4.5 18.7 4.5C18.4 4.5 18.2 4.7 18.2 5.1V6.5H17.2V5.0C17.2 4.7 17.0 4.5 16.7 4.5C16.4 4.5 16.2 4.7 16.2 5.1V6.5H15.3V3.7H16.2V4.1C16.4 3.8 16.7 3.6 17.2 3.6C17.6 3.6 18.0 3.9 18.1 4.3C18.2 3.9 18.6 3.6 19.1 3.6C19.7 3.6 20.2 4.1 20.2 4.7Z" fill="#221F1F"/>
    <path d="M21.6 3.7V6.5H20.7V3.7H21.6Z" fill="#221F1F"/>
    <path d="M23.2 4.3C23.1 4.3 23.0 4.3 23.0 4.5C23.0 4.8 24.0 4.7 24.0 5.7C24.0 6.2 23.8 6.6 23.2 6.6C22.8 6.6 22.4 6.4 22.1 6.2L22.3 5.6C22.6 5.8 22.9 5.9 23.2 5.9C23.4 5.9 23.6 5.8 23.6 5.7C23.6 5.4 22.1 5.5 22.1 4.6C22.1 4.0 22.6 3.7 23.2 3.7C23.7 3.7 24.1 3.8 24.3 4.0L24.0 4.6C23.8 4.4 23.5 4.3 23.2 4.3Z" fill="#221F1F"/>
    <path d="M27.1 5.5L28.0 6.0C27.6 6.4 27.2 6.6 26.3 6.6C25.4 6.6 24.8 6.0 24.8 5.1C24.8 4.2 25.3 3.6 26.2 3.6C26.8 3.6 27.6 4.2 27.6 5.0L25.7 5.5C25.8 5.7 26.0 5.8 26.4 5.8C26.7 5.8 27.0 5.7 27.1 5.5ZM25.7 5.0L27.0 4.7C26.9 4.4 26.7 4.3 26.4 4.3C25.8 4.3 25.7 4.5 25.7 5.0Z" fill="#221F1F"/>
    
    <!-- Magenta pixels -->
    <rect x="5.0" y="2.5" width="0.7" height="0.7" fill="#EA27C2"/>
    <rect x="14.5" y="2.5" width="0.7" height="0.7" fill="#EA27C2"/>
    <rect x="21.5" y="2.5" width="0.7" height="0.7" fill="#EA27C2"/>
    <rect x="28.7" y="5.8" width="0.7" height="0.7" fill="#EA27C2"/>
    <rect x="4.3" y="3.1" width="0.7" height="0.7" fill="#EA27C2"/>
    <rect x="3.6" y="3.8" width="0.7" height="0.7" fill="#EA27C2"/>
    <rect x="2.5" y="4.5" width="0.7" height="0.7" fill="#EA27C2"/>
    <rect x="4.4" y="5.2" width="0.7" height="0.7" fill="#EA27C2"/>
    <rect x="5.1" y="5.9" width="0.7" height="0.7" fill="#EA27C2"/>
  </g>
  <defs>
    <clipPath id="clip0">
      <rect width="32" height="32"/>
    </clipPath>
  </defs>
</svg>