<svg width="1456" height="476" viewBox="0 0 1456 476" fill="none" xmlns="http://www.w3.org/2000/svg">
<g clip-path="url(#clip0_1_32)">
<path d="M533.78 243.86C533.78 285.27 509.19 312.62 471.55 312.62C454.23 312.62 440.19 305.84 430.65 293.55V359.79H386V175.36H430.67V192.92C440.21 180.63 453.75 173.85 470.57 173.85C508.44 173.85 533.78 201.71 533.78 243.86ZM488.87 242.86C488.87 222.78 477.07 208.98 459.51 208.98C442.45 208.98 430.65 222.78 430.65 242.86C430.65 262.94 442.45 276.48 459.51 276.48C477.07 276.48 488.87 262.93 488.87 242.86Z" fill="#221F1F"/>
<path d="M632.32 304.08C622.55 309.86 608.99 313.08 596.19 313.08C569.34 313.08 550.52 296.51 550.52 267.66V144.24H594.69V181.88H630.06V211.49H594.69V260.67C594.69 271.72 599.69 276.99 607.99 276.99C612.757 276.99 618.023 275.48 623.79 272.46L632.32 304.08Z" fill="#221F1F"/>
<path d="M698.45 175.36V311.11H654V175.36H698.45Z" fill="#221F1F"/>
<path d="M958.72 225.54V311.11H914.06V238.34C914.06 222.78 905.52 213.5 891.72 213.5C875.92 213.75 866.13 226.3 866.13 244.11V311.11H821.46V238.34C821.46 222.78 812.93 213.5 799.13 213.5C783.32 213.75 773.28 226.3 773.28 244.11V311.11H728.86V175.36H773.28V197.69C782.57 181.88 797.88 173.6 817.45 173.6C839.53 173.6 855.84 184.89 862.62 203.96C871.4 183.89 888 173.6 910 173.6C939.4 173.6 958.72 193.68 958.72 225.54Z" fill="#221F1F"/>
<path d="M1030 175.36V311.11H985.55V175.36H1030Z" fill="#221F1F"/>
<path d="M1107.88 204.46C1100.35 204.46 1095.08 207.22 1095.08 213C1095.08 230.81 1166.35 222.28 1166.08 269.46C1166.08 297.31 1141.73 313.12 1108.61 313.12C1085.77 313.12 1063.94 306.6 1047.38 293.8L1061.43 264.94C1076.99 275.73 1094.56 281.75 1109.61 281.75C1117.9 281.75 1123.92 278.99 1123.92 273.48C1123.92 254.9 1053.92 264.19 1053.92 217.27C1053.92 188.9 1077.75 173.35 1109.62 173.35C1129.53 173.428 1149.04 178.891 1166.09 189.16L1151 218.27C1134.23 209.48 1118.92 204.46 1107.88 204.46Z" fill="#221F1F"/>
<path d="M1289.63 262.43L1314.72 285C1298.92 303.56 1278.09 312.6 1252.5 312.6C1208.58 312.6 1179.22 285.25 1179.22 243.84C1179.22 202.19 1206.57 174.08 1249.98 173.84C1290.63 173.59 1317.48 198.43 1318.49 238.58L1227.65 260.41C1232.65 272.21 1242.71 278.98 1255.75 278.98C1267.8 279 1279.59 273.22 1289.63 262.43ZM1224.13 235.83L1274.57 223.28C1271.31 211.28 1263.03 205.47 1251.99 205.47C1235.93 205.47 1225.65 216.25 1224.13 235.83Z" fill="#221F1F"/>
<path d="M235.46 117.58H202.82V150.22H235.46V117.58Z" fill="#EA27C2"/>
<path d="M692.56 117.58H659.92V150.22H692.56V117.58Z" fill="#EA27C2"/>
<path d="M1024.08 117.58H991.44V150.22H1024.08V117.58Z" fill="#EA27C2"/>
<path d="M1368.15 276.32H1335.51V308.96H1368.15V276.32Z" fill="#EA27C2"/>
<path d="M202.82 150.21H170.18V182.85H202.82V150.21Z" fill="#EA27C2"/>
<path d="M170.19 182.85H137.55V215.49H170.19V182.85Z" fill="#EA27C2"/>
<path d="M120.79 215.49H88.15V248.13H120.79V215.49Z" fill="#EA27C2"/>
<path d="M211.84 248.78H179.2V281.42H211.84V248.78Z" fill="#EA27C2"/>
<path d="M244.47 281.42H211.83V314.06H244.47V281.42Z" fill="#EA27C2"/>
<path d="M357.84 177.35C352.691 165.64 345.318 155.04 336.13 146.14C316.856 127.685 291.164 117.444 264.48 117.58C263.81 117.58 263.16 117.58 262.48 117.58V167.28C263.15 167.28 263.8 167.19 264.48 167.19C277.445 167.074 289.926 172.109 299.18 181.19C303.607 185.589 307.127 190.814 309.54 196.57C314.554 208.785 314.554 222.484 309.54 234.7C307.129 240.454 303.609 245.676 299.18 250.07C294.604 254.579 289.184 258.142 283.23 260.555C277.276 262.967 270.904 264.182 264.48 264.13C263.81 264.13 263.16 264.06 262.48 264.04V314C263.15 314 263.8 314.05 264.48 314.05C291.164 314.176 316.854 303.932 336.13 285.48C345.31 276.6 352.682 266.025 357.84 254.34C363.207 242.23 365.934 229.116 365.84 215.87C365.927 202.609 363.2 189.48 357.84 177.35Z" fill="#221F1F"/>
</g>
<defs>
<clipPath id="clip0_1_32">
<rect width="1280" height="242.22" fill="white" transform="translate(88 117)"/>
</clipPath>
</defs>
</svg>
